<?xml version="1.0" encoding="UTF-8"?>
<!DOCTYPE svg PUBLIC "-//W3C//DTD SVG 1.1//EN" "http://www.w3.org/Graphics/SVG/1.1/DTD/svg11.dtd">
<svg xmlns="http://www.w3.org/2000/svg" version="1.1" width="224px" height="224px" style="shape-rendering:geometricPrecision; text-rendering:geometricPrecision; image-rendering:optimizeQuality; fill-rule:evenodd; clip-rule:evenodd" xmlns:xlink="http://www.w3.org/1999/xlink">
<g><path style="opacity:1" fill="#fefefe" d="M -0.5,-0.5 C 74.1667,-0.5 148.833,-0.5 223.5,-0.5C 223.5,74.1667 223.5,148.833 223.5,223.5C 148.833,223.5 74.1667,223.5 -0.5,223.5C -0.5,148.833 -0.5,74.1667 -0.5,-0.5 Z"/></g>
<g><path style="opacity:1" fill="#757575" d="M 140.5,15.5 C 123.38,11.1991 106.213,10.8658 89,14.5C 87.9302,14.472 87.0968,14.1386 86.5,13.5C 100.716,10.2996 115.049,9.79962 129.5,12C 133.427,12.7244 137.094,13.891 140.5,15.5 Z"/></g>
<g><path style="opacity:1" fill="#f7f2f0" d="M 140.5,15.5 C 142.214,16.7384 144.214,17.405 146.5,17.5C 147.78,18.9313 149.447,19.5979 151.5,19.5C 155.182,22.0078 159.182,24.0078 163.5,25.5C 163.973,26.9063 164.973,27.573 166.5,27.5C 166.973,28.9063 167.973,29.573 169.5,29.5C 169.973,30.9063 170.973,31.573 172.5,31.5C 173.585,33.5869 175.251,34.9202 177.5,35.5C 179.5,36.1667 180.833,37.5 181.5,39.5C 182.793,41.2959 184.293,42.9625 186,44.5C 186.464,43.9056 186.631,43.2389 186.5,42.5C 186.369,41.7611 186.536,41.0944 187,40.5C 188.167,41.6667 189.333,42.8333 190.5,44C 190.041,45.9427 191.041,47.276 193.5,48C 192.906,48.4643 192.239,48.631 191.5,48.5C 190.542,48.0472 189.708,47.3805 189,46.5C 189.077,48.7715 190.243,50.4382 192.5,51.5C 192.738,53.4044 193.738,54.7377 195.5,55.5C 196.265,56.6602 197.265,57.6602 198.5,58.5C 200.7,57.5437 201.033,58.2104 199.5,60.5C 198.957,60.56 198.624,60.8933 198.5,61.5C 201.131,65.7675 203.464,70.1008 205.5,74.5C 205.402,76.5529 206.069,78.2196 207.5,79.5C 208.342,84.9663 209.675,89.6329 211.5,93.5C 212.338,93.8417 212.672,94.5084 212.5,95.5C 212.434,106.841 212.434,118.174 212.5,129.5C 212.768,131.099 212.434,132.432 211.5,133.5C 211.369,131.333 211.036,131.166 210.5,133C 208.929,139.209 207.263,145.375 205.5,151.5C 204.833,152.167 204.167,152.833 203.5,153.5C 201.158,153.225 201.158,152.392 203.5,151C 201.365,150.124 200.031,148.624 199.5,146.5C 200.583,146.539 201.583,146.873 202.5,147.5C 203.386,146.675 203.719,145.675 203.5,144.5C 198.676,143.787 194.343,142.12 190.5,139.5C 189.517,137.128 189.517,134.461 190.5,131.5C 189.888,134.881 191.054,137.214 194,138.5C 196.816,137.199 198.983,135.199 200.5,132.5C 200.833,133 201.167,133.5 201.5,134C 199.971,135.582 199.471,137.415 200,139.5C 203.362,137.459 204.362,134.459 203,130.5C 199.105,128.852 196.605,130.185 195.5,134.5C 194.675,135.386 193.675,135.719 192.5,135.5C 192.084,132.64 193.084,130.474 195.5,129C 195.43,128.235 195.097,127.735 194.5,127.5C 193.811,126.226 192.977,126.226 192,127.5C 191.333,123.5 190.667,123.5 190,127.5C 189.667,126.167 189.333,124.833 189,123.5C 188.392,125.066 187.558,126.4 186.5,127.5C 191.437,89.4539 177.104,61.2873 143.5,43C 98.0418,27.478 63.8752,40.6447 41,82.5C 34.6754,100.592 33.842,118.926 38.5,137.5C 37.5655,138.568 37.2322,139.901 37.5,141.5C 36.5,141.5 35.5,141.5 34.5,141.5C 35.5837,136.855 33.9171,133.855 29.5,132.5C 24.8722,133.136 24.2056,135.136 27.5,138.5C 28.1667,137.5 28.8333,136.5 29.5,135.5C 32.1283,137.915 32.1283,140.415 29.5,143C 27.8333,143.667 26.1667,143.667 24.5,143C 23.8803,140.527 23.2136,138.027 22.5,135.5C 21.0542,136.171 20.3875,137.338 20.5,139C 20.7728,140.533 21.1062,142.033 21.5,143.5C 20.2921,142.766 18.9587,142.433 17.5,142.5C 17.3305,140.088 17.9972,137.921 19.5,136C 18.4304,134.291 17.0971,132.791 15.5,131.5C 16,131.167 16.5,130.833 17,130.5C 18.5971,131.885 20.4305,132.551 22.5,132.5C 22.3713,130.784 22.038,129.117 21.5,127.5C 23.9564,128.262 26.4564,128.929 29,129.5C 29.8333,129.167 30.6667,128.833 31.5,128.5C 30.3984,127.824 29.3984,127.158 28.5,126.5C 28.5792,125.07 28.2458,123.736 27.5,122.5C 28.4911,121.335 29.4911,120.168 30.5,119C 30.1667,118.5 29.8333,118 29.5,117.5C 25.4469,119.527 21.4469,121.527 17.5,123.5C 17.8807,122.069 18.8807,121.236 20.5,121C 19.9641,118.492 18.6308,116.659 16.5,115.5C 17.5,115.5 18.5,115.5 19.5,115.5C 19.3398,113.801 19.5065,112.134 20,110.5C 20.6708,111.252 21.5041,111.586 22.5,111.5C 24.0233,114.364 26.3567,116.031 29.5,116.5C 30.8077,112.981 30.8077,109.315 29.5,105.5C 28.8933,105.624 28.56,105.957 28.5,106.5C 27.8333,108.5 27.1667,110.5 26.5,112.5C 25.5,111.833 24.5,111.167 23.5,110.5C 22.1667,108.833 20.8333,107.167 19.5,105.5C 21.1026,106.677 22.436,106.511 23.5,105C 22.2625,104.768 21.2625,104.268 20.5,103.5C 33.4284,102.87 33.095,101.87 19.5,100.5C 18.0813,99.5489 16.4147,99.2155 14.5,99.5C 14.5,100.5 14.5,101.5 14.5,102.5C 13.8999,101.1 12.8999,100.1 11.5,99.5C 11.7678,97.901 11.4345,96.5676 10.5,95.5C 10.3284,94.5084 10.6618,93.8417 11.5,93.5C 13.3205,89.6533 14.6538,84.9866 15.5,79.5C 16.9313,78.2196 17.5979,76.5529 17.5,74.5C 19.2927,72.5739 20.2927,70.2406 20.5,67.5C 22.588,65.6644 23.9213,63.3311 24.5,60.5C 24.3284,59.5084 24.6618,58.8417 25.5,58.5C 27.2624,57.7377 28.2624,56.4044 28.5,54.5C 30.2624,53.7377 31.2624,52.4044 31.5,50.5C 33.4513,49.7177 34.9513,48.3844 36,46.5C 38.1734,49.277 38.6734,49.1103 37.5,46C 38.5266,44.1335 39.5266,42.3002 40.5,40.5C 44.1203,38.5472 47.1203,35.8805 49.5,32.5C 51.4044,32.2624 52.7377,31.2624 53.5,29.5C 55.0269,29.573 56.0269,28.9063 56.5,27.5C 57.8471,26.8288 59.0138,26.8288 60,27.5C 60.5133,26.4734 61.0133,25.4734 61.5,24.5C 65.1513,23.3411 68.4846,21.6744 71.5,19.5C 73.5529,19.5979 75.2196,18.9313 76.5,17.5C 79.8539,17.2525 82.8539,16.2525 85.5,14.5C 85.5,13.8333 85.8333,13.5 86.5,13.5C 87.0968,14.1386 87.9302,14.472 89,14.5C 106.213,10.8658 123.38,11.1991 140.5,15.5 Z"/></g>
<g><path style="opacity:1" fill="#61615e" d="M 85.5,14.5 C 82.8539,16.2525 79.8539,17.2525 76.5,17.5C 79.1461,15.7475 82.1461,14.7475 85.5,14.5 Z"/></g>
<g><path style="opacity:1" fill="#565856" d="M 140.5,15.5 C 142.898,15.2594 144.898,15.9261 146.5,17.5C 144.214,17.405 142.214,16.7384 140.5,15.5 Z"/></g>
<g><path style="opacity:1" fill="#616161" d="M 76.5,17.5 C 75.2196,18.9313 73.5529,19.5979 71.5,19.5C 72.7804,18.0687 74.4471,17.4021 76.5,17.5 Z"/></g>
<g><path style="opacity:1" fill="#5d5d5d" d="M 146.5,17.5 C 148.553,17.4021 150.22,18.0687 151.5,19.5C 149.447,19.5979 147.78,18.9313 146.5,17.5 Z"/></g>
<g><path style="opacity:1" fill="#d92f32" d="M 98.5,18.5 C 101.572,18.1826 104.572,18.5159 107.5,19.5C 98.3897,21.3739 98.3897,23.0406 107.5,24.5C 105.604,25.4656 103.604,25.7989 101.5,25.5C 101.5,26.8333 101.5,28.1667 101.5,29.5C 104.247,29.1866 106.914,29.52 109.5,30.5C 105.928,31.7063 102.262,32.373 98.5,32.5C 98.5,27.8333 98.5,23.1667 98.5,18.5 Z"/></g>
<g><path style="opacity:1" fill="#575757" d="M 71.5,19.5 C 68.4846,21.6744 65.1513,23.3411 61.5,24.5C 64.2466,21.7933 67.5799,20.1266 71.5,19.5 Z"/></g>
<g><path style="opacity:1" fill="#767676" d="M 151.5,19.5 C 154.908,20.3668 158.242,21.5335 161.5,23C 162.381,23.7083 163.047,24.5416 163.5,25.5C 159.182,24.0078 155.182,22.0078 151.5,19.5 Z"/></g>
<g><path style="opacity:1" fill="#d63132" d="M 139.5,23.5 C 142.85,23.5056 145.85,24.5056 148.5,26.5C 146.412,27.4895 144.412,27.1561 142.5,25.5C 142.167,26 141.833,26.5 141.5,27C 142.997,28.6621 144.663,30.1621 146.5,31.5C 144.548,32.1033 142.548,31.77 140.5,30.5C 139.571,31.6888 139.238,33.0222 139.5,34.5C 141.5,34.8333 143.5,35.1667 145.5,35.5C 145.719,36.675 145.386,37.675 144.5,38.5C 141.299,37.547 138.299,36.2137 135.5,34.5C 136.842,30.8049 138.175,27.1382 139.5,23.5 Z"/></g>
<g><path style="opacity:1" fill="#4c4c4c" d="M 163.5,25.5 C 165.027,25.427 166.027,26.0937 166.5,27.5C 164.973,27.573 163.973,26.9063 163.5,25.5 Z"/></g>
<g><path style="opacity:1" fill="#8b8b8b" d="M 61.5,24.5 C 61.0133,25.4734 60.5133,26.4734 60,27.5C 59.0138,26.8288 57.8471,26.8288 56.5,27.5C 57.6594,25.7497 59.326,24.7497 61.5,24.5 Z"/></g>
<g><path style="opacity:1" fill="#d92f33" d="M 111.5,17.5 C 112.496,17.4142 113.329,17.7476 114,18.5C 114.914,27.5454 116.914,28.212 120,20.5C 121.156,19.0072 121.99,19.1739 122.5,21C 121.389,24.2719 120.056,27.4386 118.5,30.5C 117.311,31.4287 115.978,31.762 114.5,31.5C 113.815,26.7606 112.815,22.0939 111.5,17.5 Z"/></g>
<g><path style="opacity:1" fill="#d6292e" d="M 126.5,19.5 C 127.5,19.5 128.5,19.5 129.5,19.5C 128.624,23.4616 127.958,27.4616 127.5,31.5C 129.655,31.372 131.655,31.872 133.5,33C 130.77,33.7284 128.103,33.5617 125.5,32.5C 125.167,31.6667 124.833,30.8333 124.5,30C 125.409,26.5339 126.076,23.0339 126.5,19.5 Z"/></g>
<g><path style="opacity:1" fill="#4d4d4d" d="M 166.5,27.5 C 168.027,27.427 169.027,28.0937 169.5,29.5C 167.973,29.573 166.973,28.9063 166.5,27.5 Z"/></g>
<g><path style="opacity:1" fill="#575757" d="M 56.5,27.5 C 56.0269,28.9063 55.0269,29.573 53.5,29.5C 53.9731,28.0937 54.9731,27.427 56.5,27.5 Z"/></g>
<g><path style="opacity:1" fill="#d4393a" d="M 151.5,27.5 C 155.246,28.5404 158.579,30.3737 161.5,33C 161.167,33.5 160.833,34 160.5,34.5C 156.116,34.21 153.782,36.5433 153.5,41.5C 152.5,41.5 151.5,41.5 150.5,41.5C 151.143,38.0473 152.476,34.8806 154.5,32C 152.9,30.8767 151.9,29.3767 151.5,27.5 Z"/></g>
<g><path style="opacity:1" fill="#525252" d="M 169.5,29.5 C 171.027,29.427 172.027,30.0937 172.5,31.5C 170.973,31.573 169.973,30.9063 169.5,29.5 Z"/></g>
<g><path style="opacity:1" fill="#5d5f5d" d="M 53.5,29.5 C 52.7377,31.2624 51.4044,32.2624 49.5,32.5C 50.2623,30.7376 51.5956,29.7376 53.5,29.5 Z"/></g>
<g><path style="opacity:1" fill="#d52e33" d="M 67.5,28.5 C 68.552,28.3505 69.552,28.5172 70.5,29C 73.924,31.3797 76.924,34.213 79.5,37.5C 77.2692,37.8867 74.9359,38.0534 72.5,38C 71.2283,39.3068 70.2283,40.8068 69.5,42.5C 68.7492,41.624 68.2492,40.624 68,39.5C 67.5014,35.8484 67.3347,32.1817 67.5,28.5 Z"/></g>
<g><path style="opacity:1" fill="#d72830" d="M 85.5,21.5 C 94.4905,20.9869 97.1572,24.8202 93.5,33C 90.9865,34.2525 88.3198,34.7525 85.5,34.5C 85.0679,30.501 84.0679,26.6676 82.5,23C 83.7375,22.7679 84.7375,22.2679 85.5,21.5 Z"/></g>
<g><path style="opacity:1" fill="#f8eee8" d="M 86.5,23.5 C 92.1707,23.4927 93.8374,26.1594 91.5,31.5C 90.2638,32.2458 88.9305,32.5792 87.5,32.5C 87.0371,29.5176 86.7038,26.5176 86.5,23.5 Z"/></g>
<g><path style="opacity:1" fill="#595858" d="M 172.5,31.5 C 174.749,32.0798 176.415,33.4131 177.5,35.5C 175.251,34.9202 173.585,33.5869 172.5,31.5 Z"/></g>
<g><path style="opacity:1" fill="#f2d3cd" d="M 69.5,31.5 C 72.4073,32.614 72.9073,34.2807 71,36.5C 69.7308,35.0953 69.2308,33.4286 69.5,31.5 Z"/></g>
<g><path style="opacity:1" fill="#7f7f7f" d="M 49.5,32.5 C 47.1203,35.8805 44.1203,38.5472 40.5,40.5C 40.3433,39.1266 40.51,37.7932 41,36.5C 41.414,36.9574 41.914,37.2907 42.5,37.5C 44.5916,35.3951 46.9249,33.7284 49.5,32.5 Z"/></g>
<g><path style="opacity:1" fill="#eb1e25" d="M 186.5,127.5 C 177.774,162.897 155.441,183.23 119.5,188.5C 111.495,188.269 103.495,187.935 95.5,187.5C 74.9933,182.833 58.8266,171.833 47,154.5C 44.1,148.7 41.2667,143.033 38.5,137.5C 33.842,118.926 34.6754,100.592 41,82.5C 63.8752,40.6447 98.0418,27.478 143.5,43C 177.104,61.2873 191.437,89.4539 186.5,127.5 Z"/></g>
<g><path style="opacity:1" fill="#5d5b5d" d="M 181.5,39.5 C 183.411,40.075 185.078,41.075 186.5,42.5C 186.631,43.2389 186.464,43.9056 186,44.5C 184.293,42.9625 182.793,41.2959 181.5,39.5 Z"/></g>
<g><path style="opacity:1" fill="#d93033" d="M 55.5,35.5 C 63.5,36.5 63.5,37.5 55.5,38.5C 55.281,39.675 55.6143,40.675 56.5,41.5C 60.8394,38.2331 64.1727,38.8998 66.5,43.5C 64.346,48.3552 61.0127,49.5218 56.5,47C 59.5574,47.1069 61.8907,45.9402 63.5,43.5C 60.1667,43.1667 56.8333,42.8333 53.5,42.5C 52.6399,39.8472 53.3066,37.5139 55.5,35.5 Z"/></g>
<g><path style="opacity:1" fill="#c0c0c0" d="M 40.5,40.5 C 39.5266,42.3002 38.5266,44.1335 37.5,46C 38.6734,49.1103 38.1734,49.277 36,46.5C 34.9513,48.3844 33.4513,49.7177 31.5,50.5C 32.0312,48.4559 33.1978,46.7893 35,45.5C 35.3333,43.8333 35.6667,42.1667 36,40.5C 37.4902,41.7279 38.9902,41.7279 40.5,40.5 Z"/></g>
<g><path style="opacity:1" fill="#d52a31" d="M 168.5,39.5 C 169.675,39.281 170.675,39.6143 171.5,40.5C 168.583,46.4139 170.083,47.7473 176,44.5C 176.5,44.8333 177,45.1667 177.5,45.5C 174.781,48.7157 171.948,51.7157 169,54.5C 168.5,54.1667 168,53.8333 167.5,53.5C 168.5,52.1667 169.5,50.8333 170.5,49.5C 169.52,48.0186 168.353,46.6853 167,45.5C 165.647,46.6853 164.48,48.0186 163.5,49.5C 162.692,49.1924 162.025,48.6924 161.5,48C 163.668,45.0019 166.001,42.1686 168.5,39.5 Z"/></g>
<g><path style="opacity:1" fill="#565a59" d="M 191.5,48.5 C 192.11,49.391 192.443,50.391 192.5,51.5C 190.243,50.4382 189.077,48.7715 189,46.5C 189.708,47.3805 190.542,48.0472 191.5,48.5 Z"/></g>
<g><path style="opacity:1" fill="#636363" d="M 31.5,50.5 C 31.2624,52.4044 30.2624,53.7377 28.5,54.5C 28.7376,52.5956 29.7376,51.2623 31.5,50.5 Z"/></g>
<g><path style="opacity:1" fill="#d92830" d="M 46.5,43.5 C 49.7311,45.2199 52.5644,47.5532 55,50.5C 54.9065,57.2278 51.7398,59.0612 45.5,56C 43.6487,54.3163 41.982,52.4829 40.5,50.5C 40.8076,49.6919 41.3076,49.0253 42,48.5C 44.1667,50.6667 46.3333,52.8333 48.5,55C 52.0876,55.6114 53.2542,54.1114 52,50.5C 50.1266,48.2911 47.96,46.4578 45.5,45C 46.056,44.6174 46.3893,44.1174 46.5,43.5 Z"/></g>
<g><path style="opacity:1" fill="#585858" d="M 192.5,51.5 C 194.262,52.2623 195.262,53.5956 195.5,55.5C 193.738,54.7377 192.738,53.4044 192.5,51.5 Z"/></g>
<g><path style="opacity:1" fill="#545254" d="M 28.5,54.5 C 28.2624,56.4044 27.2624,57.7377 25.5,58.5C 25.7376,56.5956 26.7376,55.2623 28.5,54.5 Z"/></g>
<g><path style="opacity:1" fill="#d42930" d="M 32.5,55.5 C 33.1515,56.0906 33.8182,56.7573 34.5,57.5C 36.198,56.3192 37.8647,56.3192 39.5,57.5C 34.4073,59.0662 33.4073,61.8996 36.5,66C 38.7695,66.7581 40.9361,66.5914 43,65.5C 43.7805,64.0563 43.6139,62.723 42.5,61.5C 41.8333,62.1667 41.1667,62.8333 40.5,63.5C 39.4373,60.0563 40.7706,58.5563 44.5,59C 47.2196,62.8176 46.553,66.151 42.5,69C 35.486,69.8212 32.1527,66.6545 32.5,59.5C 31.448,59.6495 30.448,59.4828 29.5,59C 31.4257,58.5776 32.4257,57.4109 32.5,55.5 Z"/></g>
<g><path style="opacity:1" fill="#e23530" d="M 130.5,78.5 C 131.306,77.2719 132.306,76.2719 133.5,75.5C 137.075,72.35 139.075,68.35 139.5,63.5C 136.491,63.423 134.324,64.7563 133,67.5C 132.405,66.1011 132.572,64.7678 133.5,63.5C 132.311,62.5713 130.978,62.238 129.5,62.5C 131.265,61.5386 133.265,61.2053 135.5,61.5C 135.5,59.8333 135.5,58.1667 135.5,56.5C 133.801,56.6602 132.134,56.4935 130.5,56C 132.473,55.5045 134.473,55.3379 136.5,55.5C 136.312,57.1033 136.812,58.4366 138,59.5C 138.423,58.0439 139.256,57.5439 140.5,58C 139.167,59.3333 139.167,60.6667 140.5,62C 141.449,62.6172 142.282,62.4506 143,61.5C 143.188,63.0613 142.355,63.728 140.5,63.5C 140.493,66.0379 140.159,68.5379 139.5,71C 140.158,73.1169 140.991,74.9502 142,76.5C 141.586,76.9574 141.086,77.2907 140.5,77.5C 139.452,76.6171 138.285,75.9504 137,75.5C 135.125,77.1785 132.958,78.1785 130.5,78.5 Z"/></g>
<g><path style="opacity:1" fill="#da2d33" d="M 179.5,52.5 C 181.977,52.0508 183.977,52.7175 185.5,54.5C 183.403,58.3723 181.069,62.039 178.5,65.5C 177.758,63.8918 177.591,62.2251 178,60.5C 176.745,58.1466 175.078,57.4799 173,58.5C 171.72,58.3865 170.887,57.7199 170.5,56.5C 173.703,55.3939 176.703,54.0605 179.5,52.5 Z"/></g>
<g><path style="opacity:1" fill="#f6e3d2" d="M 178.5,55.5 C 181.957,55.6672 182.29,56.6672 179.5,58.5C 178.614,57.675 178.281,56.675 178.5,55.5 Z"/></g>
<g><path style="opacity:1" fill="#d94a3e" d="M 92.5,62.5 C 91.1266,62.3433 89.7932,62.51 88.5,63C 90.2112,64.1332 90.7112,65.6332 90,67.5C 88.5,66.6667 87.3333,65.5 86.5,64C 85.552,63.5172 84.552,63.3505 83.5,63.5C 83.9841,67.4696 85.3175,71.1363 87.5,74.5C 87.5,74.8333 87.5,75.1667 87.5,75.5C 85.0414,73.948 83.5414,71.6146 83,68.5C 82.3333,66.1667 82.3333,63.8333 83,61.5C 83.414,61.0426 83.914,60.7093 84.5,60.5C 87.3106,61.0796 89.9773,61.7463 92.5,62.5 Z"/></g>
<g><path style="opacity:1" fill="#626261" d="M 24.5,60.5 C 23.9213,63.3311 22.588,65.6644 20.5,67.5C 21.0787,64.6689 22.412,62.3356 24.5,60.5 Z"/></g>
<g><path style="opacity:1" fill="#f5ddc8" d="M 129.5,62.5 C 130.978,62.238 132.311,62.5713 133.5,63.5C 132.572,64.7678 132.405,66.1011 133,67.5C 134.324,64.7563 136.491,63.423 139.5,63.5C 139.075,68.35 137.075,72.35 133.5,75.5C 132.086,73.4017 132.752,72.4017 135.5,72.5C 135.5,71.5 135.5,70.5 135.5,69.5C 133.179,69.7711 131.179,69.1045 129.5,67.5C 127.149,69.2289 124.482,69.8956 121.5,69.5C 122.969,65.6922 125.635,63.3589 129.5,62.5 Z"/></g>
<g><path style="opacity:1" fill="#9b9b9b" d="M 199.5,60.5 C 200.32,62.1401 201.153,63.8068 202,65.5C 206.529,67.2204 207.695,70.2204 205.5,74.5C 203.464,70.1008 201.131,65.7675 198.5,61.5C 198.624,60.8933 198.957,60.56 199.5,60.5 Z"/></g>
<g><path style="opacity:1" fill="#5e5e5e" d="M 20.5,67.5 C 20.2927,70.2406 19.2927,72.5739 17.5,74.5C 17.7073,71.7594 18.7073,69.4261 20.5,67.5 Z"/></g>
<g><path style="opacity:1" fill="#d53636" d="M 187.5,62.5 C 193.789,62.9337 195.622,65.9337 193,71.5C 191.983,69.6241 191.149,67.6241 190.5,65.5C 189.833,68.5 189.167,71.5 188.5,74.5C 185.219,75.7665 182.719,74.7665 181,71.5C 180.126,68.9969 180.793,66.9969 183,65.5C 183.333,67.5 183.667,69.5 184,71.5C 185.011,72.3366 186.178,72.67 187.5,72.5C 186.372,69.1148 186.372,65.7814 187.5,62.5 Z"/></g>
<g><path style="opacity:1" fill="#c5615f" d="M 34.5,72.5 C 36.604,72.2011 38.604,72.5344 40.5,73.5C 40.3764,74.1067 40.0431,74.44 39.5,74.5C 37.8333,73.8333 36.1667,73.1667 34.5,72.5 Z"/></g>
<g><path style="opacity:1" fill="#ce2c30" d="M 195.5,73.5 C 196.5,73.5 197.5,73.5 198.5,73.5C 198.513,76.6903 199.513,79.5237 201.5,82C 201.167,82.5 200.833,83 200.5,83.5C 199.335,82.5089 198.168,81.5089 197,80.5C 194.256,81.3035 191.589,82.3035 189,83.5C 188.5,83.1667 188,82.8333 187.5,82.5C 190.183,80.7357 193.016,79.069 196,77.5C 196.195,76.1807 196.028,74.8474 195.5,73.5 Z"/></g>
<g><path style="opacity:1" fill="#606060" d="M 17.5,74.5 C 17.5979,76.5529 16.9313,78.2196 15.5,79.5C 15.4021,77.4471 16.0687,75.7804 17.5,74.5 Z"/></g>
<g><path style="opacity:1" fill="#575656" d="M 205.5,74.5 C 206.931,75.7804 207.598,77.4471 207.5,79.5C 206.069,78.2196 205.402,76.5529 205.5,74.5 Z"/></g>
<g><path style="opacity:1" fill="#db2430" d="M 34.5,72.5 C 36.1667,73.1667 37.8333,73.8333 39.5,74.5C 37.2948,75.1984 35.4615,76.5318 34,78.5C 33.8849,80.1068 34.3849,81.6068 35.5,83C 35.1667,83.5 34.8333,84 34.5,84.5C 32.1938,81.5271 29.5272,78.8605 26.5,76.5C 25.5713,75.3112 25.238,73.9778 25.5,72.5C 28.5,72.5 31.5,72.5 34.5,72.5 Z"/></g>
<g><path style="opacity:1" fill="#f0c7ba" d="M 28.5,75.5 C 30.0348,74.2121 31.7015,74.2121 33.5,75.5C 33,76.5 32.5,77.5 32,78.5C 30.9609,77.2899 29.7942,76.2899 28.5,75.5 Z"/></g>
<g><path style="opacity:1" fill="#f9ddce" d="M 87.5,75.5 C 87.5,75.1667 87.5,74.8333 87.5,74.5C 91.4543,75.7719 95.4543,76.9386 99.5,78C 100.55,79.7639 101.55,81.9306 102.5,84.5C 103.822,84.33 104.989,84.6634 106,85.5C 106.813,87.4357 107.313,89.4357 107.5,91.5C 105.379,91.3253 103.379,91.6586 101.5,92.5C 102.252,90.8997 103.252,89.3997 104.5,88C 101.823,85.6549 99.4897,82.9883 97.5,80C 93.7642,79.297 90.4309,77.797 87.5,75.5 Z"/></g>
<g><path style="opacity:1" fill="#5a5a5a" d="M 15.5,79.5 C 14.6538,84.9866 13.3205,89.6533 11.5,93.5C 11.9205,88.4713 13.2538,83.8047 15.5,79.5 Z"/></g>
<g><path style="opacity:1" fill="#646464" d="M 207.5,79.5 C 209.746,83.8047 211.08,88.4713 211.5,93.5C 209.675,89.6329 208.342,84.9663 207.5,79.5 Z"/></g>
<g><path style="opacity:1" fill="#d83d43" d="M 30.5,90.5 C 27.0793,92.1466 23.4126,92.8132 19.5,92.5C 19.4326,93.9587 19.7659,95.2921 20.5,96.5C 18.744,95.4479 18.0773,93.7812 18.5,91.5C 21.5184,91.6646 24.5184,91.498 27.5,91C 25.2537,89.9605 23.087,88.7938 21,87.5C 20.51,86.2068 20.3433,84.8734 20.5,83.5C 24.7902,84.4245 29.1235,85.0912 33.5,85.5C 33.719,86.675 33.3857,87.675 32.5,88.5C 30.5675,87.4798 28.5675,87.3131 26.5,88C 28.0664,88.6082 29.3998,89.4415 30.5,90.5 Z"/></g>
<g><path style="opacity:1" fill="#d8292c" d="M 189.5,87.5 C 206.906,87.3854 207.906,91.3854 192.5,99.5C 192.167,99 191.833,98.5 191.5,98C 192.456,96.6349 193.122,95.1349 193.5,93.5C 192.646,91.1061 191.313,89.1061 189.5,87.5 Z"/></g>
<g><path style="opacity:1" fill="#f3d3cc" d="M 195.5,90.5 C 200.137,90.6077 200.47,91.6077 196.5,93.5C 195.614,92.675 195.281,91.675 195.5,90.5 Z"/></g>
<g><path style="opacity:1" fill="#dc1522" d="M 30.5,90.5 C 31.9063,90.9731 32.573,91.9731 32.5,93.5C 29.4281,93.1826 26.4281,93.5159 23.5,94.5C 24.325,95.3857 25.325,95.719 26.5,95.5C 28.3117,95.7713 29.9783,96.438 31.5,97.5C 31,97.8333 30.5,98.1667 30,98.5C 26.8632,97.6394 23.6965,96.9728 20.5,96.5C 19.7659,95.2921 19.4326,93.9587 19.5,92.5C 23.4126,92.8132 27.0793,92.1466 30.5,90.5 Z"/></g>
<g><path style="opacity:1" fill="#e08686" d="M 32.5,93.5 C 30.5,94.1667 28.5,94.8333 26.5,95.5C 25.325,95.719 24.325,95.3857 23.5,94.5C 26.4281,93.5159 29.4281,93.1826 32.5,93.5 Z"/></g>
<g><path style="opacity:1" fill="#f8eade" d="M 120.5,84.5 C 119.972,85.7206 119.305,86.8873 118.5,88C 120.47,90.7416 122.97,92.9082 126,94.5C 128.328,92.3381 130.494,90.0048 132.5,87.5C 139.543,83.2649 146.21,83.5982 152.5,88.5C 153.127,89.4168 153.461,90.4168 153.5,91.5C 150.919,89.9503 148.252,88.4503 145.5,87C 142.289,86.2018 139.289,86.7018 136.5,88.5C 134.471,87.3707 134.137,87.8707 135.5,90C 132.119,92.3797 129.453,95.3797 127.5,99C 124.854,99.4974 122.187,99.6641 119.5,99.5C 119.892,104.141 117.892,106.474 113.5,106.5C 115.016,104.814 116.35,102.981 117.5,101C 116.685,99.3566 115.685,97.8566 114.5,96.5C 117.352,98.3753 119.352,97.7086 120.5,94.5C 119.182,93.962 117.516,93.1286 115.5,92C 116.624,91.7508 117.624,91.2508 118.5,90.5C 117.652,88.5914 117.318,86.5914 117.5,84.5C 118.5,84.5 119.5,84.5 120.5,84.5 Z"/></g>
<g><path style="opacity:1" fill="#f9f7f2" d="M 92.5,62.5 C 95.678,63.3439 98.3446,65.0105 100.5,67.5C 100.621,70.1048 101.621,72.1048 103.5,73.5C 105.764,76.4308 108.431,79.0974 111.5,81.5C 116.015,78.3329 119.348,74.3329 121.5,69.5C 124.482,69.8956 127.149,69.2289 129.5,67.5C 131.179,69.1045 133.179,69.7711 135.5,69.5C 135.5,70.5 135.5,71.5 135.5,72.5C 132.752,72.4017 132.086,73.4017 133.5,75.5C 132.306,76.2719 131.306,77.2719 130.5,78.5C 128.692,78.4914 127.025,78.9914 125.5,80C 123.963,81.7073 122.296,83.2073 120.5,84.5C 119.5,84.5 118.5,84.5 117.5,84.5C 117.318,86.5914 117.652,88.5914 118.5,90.5C 117.624,91.2508 116.624,91.7508 115.5,92C 117.516,93.1286 119.182,93.962 120.5,94.5C 119.352,97.7086 117.352,98.3753 114.5,96.5C 113.518,95.8592 112.518,95.1925 111.5,94.5C 108.995,96.5056 106.662,98.6723 104.5,101C 106.395,102.979 108.395,104.979 110.5,107C 111.577,107.47 112.577,107.303 113.5,106.5C 117.892,106.474 119.892,104.141 119.5,99.5C 122.187,99.6641 124.854,99.4974 127.5,99C 129.453,95.3797 132.119,92.3797 135.5,90C 134.137,87.8707 134.471,87.3707 136.5,88.5C 139.289,86.7018 142.289,86.2018 145.5,87C 148.252,88.4503 150.919,89.9503 153.5,91.5C 154.765,95.4539 154.765,99.4539 153.5,103.5C 150.452,106.546 147.785,109.88 145.5,113.5C 147.769,117.272 150.602,120.606 154,123.5C 155.108,128.059 154.275,132.059 151.5,135.5C 148.318,136.374 145.318,137.707 142.5,139.5C 140.885,138.846 139.218,138.346 137.5,138C 138.345,136.442 137.679,135.442 135.5,135C 138.614,134.877 141.614,134.71 144.5,134.5C 145.783,131.365 145.783,128.365 144.5,125.5C 143.833,125.5 143.5,125.167 143.5,124.5C 145.214,121.357 144.548,120.191 141.5,121C 140.663,119.989 140.33,118.822 140.5,117.5C 138.712,117.215 137.045,117.548 135.5,118.5C 128.771,124.478 126.771,123.478 129.5,115.5C 129.923,114.735 130.257,113.902 130.5,113C 128.766,110.999 126.933,109.166 125,107.5C 121.875,108.959 119.375,111.126 117.5,114C 118.13,115.31 119.13,116.144 120.5,116.5C 120.53,117.497 120.03,118.164 119,118.5C 116.908,115.08 114.408,114.747 111.5,117.5C 110.558,117.392 109.725,117.059 109,116.5C 107.681,118.25 107.181,120.25 107.5,122.5C 107.167,122.5 106.833,122.5 106.5,122.5C 105.5,122.5 104.5,122.5 103.5,122.5C 104.035,125.238 103.035,127.072 100.5,128C 101.325,129.688 102.325,129.855 103.5,128.5C 104.984,130.074 106.651,131.407 108.5,132.5C 110.025,135.563 112.025,138.23 114.5,140.5C 112.754,142.854 110.421,143.854 107.5,143.5C 107.274,140.751 107.607,138.084 108.5,135.5C 106.677,134.509 105.177,133.176 104,131.5C 103.692,132.308 103.192,132.975 102.5,133.5C 101.402,129.678 99.0685,128.678 95.5,130.5C 92.9841,133.183 90.3174,135.683 87.5,138C 83.2625,138.804 79.2625,138.304 75.5,136.5C 75.2254,131.78 76.0588,131.446 78,135.5C 78.4935,133.866 78.6602,132.199 78.5,130.5C 80.5286,132.5 82.8619,132.833 85.5,131.5C 87.6708,129.828 89.6708,127.995 91.5,126C 89.6667,123.5 87.5,121.333 85,119.5C 83.317,121.351 81.4837,123.017 79.5,124.5C 76.7294,124.579 74.0627,124.079 71.5,123C 73.1412,121.871 74.1412,120.371 74.5,118.5C 76.0165,116.814 77.3498,114.981 78.5,113C 75.3396,110.006 72.3396,106.839 69.5,103.5C 65.7412,89.7626 70.7412,83.5959 84.5,85C 89.5404,87.0761 93.5404,90.4094 96.5,95C 97,95.1667 97.5,95.3333 98,95.5C 99.1739,94.4558 100.341,93.4558 101.5,92.5C 103.379,91.6586 105.379,91.3253 107.5,91.5C 107.313,89.4357 106.813,87.4357 106,85.5C 104.989,84.6634 103.822,84.33 102.5,84.5C 101.55,81.9306 100.55,79.7639 99.5,78C 95.4543,76.9386 91.4543,75.7719 87.5,74.5C 85.3175,71.1363 83.9841,67.4696 83.5,63.5C 84.552,63.3505 85.552,63.5172 86.5,64C 87.3333,65.5 88.5,66.6667 90,67.5C 90.7112,65.6332 90.2112,64.1332 88.5,63C 89.7932,62.51 91.1266,62.3433 92.5,62.5 Z"/></g>
<g><path style="opacity:1" fill="#ed9383" d="M 100.5,67.5 C 102.245,69.0326 103.245,71.0326 103.5,73.5C 101.621,72.1048 100.621,70.1048 100.5,67.5 Z"/></g>
<g><path style="opacity:1" fill="#e82525" d="M 144.5,99.5 C 142.867,102.493 140.534,104.826 137.5,106.5C 135.721,105.606 134.388,104.273 133.5,102.5C 135.515,97.476 139.181,94.8094 144.5,94.5C 144.5,96.1667 144.5,97.8333 144.5,99.5 Z"/></g>
<g><path style="opacity:1" fill="#e62b28" d="M 114.5,96.5 C 115.685,97.8566 116.685,99.3566 117.5,101C 116.35,102.981 115.016,104.814 113.5,106.5C 112.577,107.303 111.577,107.47 110.5,107C 108.395,104.979 106.395,102.979 104.5,101C 106.662,98.6723 108.995,96.5056 111.5,94.5C 112.518,95.1925 113.518,95.8592 114.5,96.5 Z"/></g>
<g><path style="opacity:1" fill="#da4e41" d="M 144.5,99.5 C 144.5,97.8333 144.5,96.1667 144.5,94.5C 139.181,94.8094 135.515,97.476 133.5,102.5C 131.972,102.483 131.472,101.816 132,100.5C 134.5,98 137,95.5 139.5,93C 143.442,91.5823 145.775,92.9157 146.5,97C 146.361,98.301 145.695,99.1344 144.5,99.5 Z"/></g>
<g><path style="opacity:1" fill="#7f7d82" d="M 10.5,95.5 C 11.4345,96.5676 11.7678,97.901 11.5,99.5C 11.7678,101.099 11.4345,102.432 10.5,103.5C 10.1667,103.5 9.83333,103.5 9.5,103.5C 9.83333,100.833 10.1667,98.1667 10.5,95.5 Z"/></g>
<g><path style="opacity:1" fill="#df847b" d="M 19.5,100.5 C 18.1667,100.5 17.5,101.167 17.5,102.5C 16.5,102.5 15.5,102.5 14.5,102.5C 14.5,101.5 14.5,100.5 14.5,99.5C 16.4147,99.2155 18.0813,99.5489 19.5,100.5 Z"/></g>
<g><path style="opacity:1" fill="#db3132" d="M 19.5,100.5 C 33.095,101.87 33.4284,102.87 20.5,103.5C 19.209,103.737 18.209,103.404 17.5,102.5C 17.5,101.167 18.1667,100.5 19.5,100.5 Z"/></g>
<g><path style="opacity:1" fill="#e7312b" d="M 77.5,93.5 C 82.7241,93.6919 87.2241,95.6919 91,99.5C 91.6667,100.5 91.6667,101.5 91,102.5C 89.003,103.672 87.1697,105.005 85.5,106.5C 82.4181,104.628 79.7514,102.295 77.5,99.5C 76.3058,97.4844 76.3058,95.4844 77.5,93.5 Z"/></g>
<g><path style="opacity:1" fill="#db3737" d="M 196.5,100.5 C 199.5,100.5 202.5,100.5 205.5,100.5C 204.857,103.988 202.857,106.488 199.5,108C 201.81,108.497 204.143,108.663 206.5,108.5C 206.5,109.5 206.5,110.5 206.5,111.5C 202.167,111.5 197.833,111.5 193.5,111.5C 193.351,110.448 193.517,109.448 194,108.5C 196.167,107 198.333,105.5 200.5,104C 197.774,103.818 195.107,103.318 192.5,102.5C 193.949,101.828 195.282,101.161 196.5,100.5 Z"/></g>
<g><path style="opacity:1" fill="#d25c63" d="M 28.5,106.5 C 28.56,105.957 28.8933,105.624 29.5,105.5C 30.8077,109.315 30.8077,112.981 29.5,116.5C 29.8128,112.958 29.4794,109.625 28.5,106.5 Z"/></g>
<g><path style="opacity:1" fill="#db4446" d="M 19.5,105.5 C 20.8333,107.167 22.1667,108.833 23.5,110.5C 22.8333,110.5 22.5,110.833 22.5,111.5C 21.5041,111.586 20.6708,111.252 20,110.5C 19.5065,112.134 19.3398,113.801 19.5,115.5C 18.5,115.5 17.5,115.5 16.5,115.5C 16.3354,112.482 16.502,109.482 17,106.5C 17.6708,105.748 18.5041,105.414 19.5,105.5 Z"/></g>
<g><path style="opacity:1" fill="#ed8780" d="M 28.5,106.5 C 28.8076,108.924 28.4742,111.257 27.5,113.5C 26.8933,113.376 26.56,113.043 26.5,112.5C 27.1667,110.5 27.8333,108.5 28.5,106.5 Z"/></g>
<g><path style="opacity:1" fill="#404040" d="M 212.5,95.5 C 213.805,106.836 213.805,118.17 212.5,129.5C 212.434,118.174 212.434,106.841 212.5,95.5 Z"/></g>
<g><path style="opacity:1" fill="#e5352e" d="M 129.5,115.5 C 127.817,116.661 125.984,117.661 124,118.5C 122.697,118.022 121.531,117.355 120.5,116.5C 119.13,116.144 118.13,115.31 117.5,114C 119.375,111.126 121.875,108.959 125,107.5C 126.933,109.166 128.766,110.999 130.5,113C 130.257,113.902 129.923,114.735 129.5,115.5 Z"/></g>
<g><path style="opacity:1" fill="#dc1721" d="M 28.5,106.5 C 29.4794,109.625 29.8128,112.958 29.5,116.5C 26.3567,116.031 24.0233,114.364 22.5,111.5C 22.5,110.833 22.8333,110.5 23.5,110.5C 24.5,111.167 25.5,111.833 26.5,112.5C 26.56,113.043 26.8933,113.376 27.5,113.5C 28.4742,111.257 28.8076,108.924 28.5,106.5 Z"/></g>
<g><path style="opacity:1" fill="#e33029" d="M 96.5,107.5 C 105.936,110.317 106.603,114.317 98.5,119.5C 95.9633,117.798 93.9633,115.631 92.5,113C 93.6502,111.019 94.9835,109.186 96.5,107.5 Z"/></g>
<g><path style="opacity:1" fill="#d8242c" d="M 192.5,115.5 C 197.167,115.833 201.833,116.167 206.5,116.5C 206.156,119.562 205.489,122.562 204.5,125.5C 203.526,123.257 203.192,120.924 203.5,118.5C 202.5,118.5 201.5,118.5 200.5,118.5C 199.251,126.348 198.585,126.348 198.5,118.5C 197.167,118.5 195.833,118.5 194.5,118.5C 194.799,120.604 194.466,122.604 193.5,124.5C 192.516,121.572 192.183,118.572 192.5,115.5 Z"/></g>
<g><path style="opacity:1" fill="#da3f3e" d="M 28.5,126.5 C 25.2123,126.927 22.2123,126.26 19.5,124.5C 18.4376,125.425 18.4376,126.425 19.5,127.5C 17.8235,126.817 17.1568,125.483 17.5,123.5C 21.4469,121.527 25.4469,119.527 29.5,117.5C 29.8333,118 30.1667,118.5 30.5,119C 29.4911,120.168 28.4911,121.335 27.5,122.5C 28.2458,123.736 28.5792,125.07 28.5,126.5 Z"/></g>
<g><path style="opacity:1" fill="#e42f2b" d="M 143.5,124.5 C 143.5,125.167 143.833,125.5 144.5,125.5C 144.789,131.36 142.122,133.36 136.5,131.5C 134.995,129.496 133.328,127.663 131.5,126C 131.667,125.5 131.833,125 132,124.5C 134.036,122.79 136.036,121.123 138,119.5C 139.683,121.351 141.516,123.017 143.5,124.5 Z"/></g>
<g><path style="opacity:1" fill="#d92d34" d="M 194.5,127.5 C 195.097,127.735 195.43,128.235 195.5,129C 193.084,130.474 192.084,132.64 192.5,135.5C 193.675,135.719 194.675,135.386 195.5,134.5C 196.605,130.185 199.105,128.852 203,130.5C 204.362,134.459 203.362,137.459 200,139.5C 199.471,137.415 199.971,135.582 201.5,134C 201.167,133.5 200.833,133 200.5,132.5C 198.983,135.199 196.816,137.199 194,138.5C 191.054,137.214 189.888,134.881 190.5,131.5C 190.894,129.29 192.227,127.957 194.5,127.5 Z"/></g>
<g><path style="opacity:1" fill="#595a5a" d="M 9.5,103.5 C 9.83333,103.5 10.1667,103.5 10.5,103.5C 9.91966,119.952 12.253,135.952 17.5,151.5C 10.6066,136.345 7.93991,120.345 9.5,103.5 Z"/></g>
<g><path style="opacity:1" fill="#5b5b5b" d="M 211.5,133.5 C 210.471,139.921 208.471,145.921 205.5,151.5C 207.263,145.375 208.929,139.209 210.5,133C 211.036,131.166 211.369,131.333 211.5,133.5 Z"/></g>
<g><path style="opacity:1" fill="#faf9f9" d="M 11.5,99.5 C 12.8999,100.1 13.8999,101.1 14.5,102.5C 15.5,102.5 16.5,102.5 17.5,102.5C 18.209,103.404 19.209,103.737 20.5,103.5C 21.2625,104.268 22.2625,104.768 23.5,105C 22.436,106.511 21.1026,106.677 19.5,105.5C 18.5041,105.414 17.6708,105.748 17,106.5C 16.502,109.482 16.3354,112.482 16.5,115.5C 18.6308,116.659 19.9641,118.492 20.5,121C 18.8807,121.236 17.8807,122.069 17.5,123.5C 17.1568,125.483 17.8235,126.817 19.5,127.5C 20.1667,127.5 20.8333,127.5 21.5,127.5C 22.038,129.117 22.3713,130.784 22.5,132.5C 20.4305,132.551 18.5971,131.885 17,130.5C 16.5,130.833 16,131.167 15.5,131.5C 17.0971,132.791 18.4304,134.291 19.5,136C 17.9972,137.921 17.3305,140.088 17.5,142.5C 18.9587,142.433 20.2921,142.766 21.5,143.5C 26.4274,146.558 30.7607,145.891 34.5,141.5C 35.5,141.5 36.5,141.5 37.5,141.5C 37.2322,139.901 37.5655,138.568 38.5,137.5C 41.2667,143.033 44.1,148.7 47,154.5C 58.8266,171.833 74.9933,182.833 95.5,187.5C 103.45,189.497 111.45,189.831 119.5,188.5C 155.441,183.23 177.774,162.897 186.5,127.5C 187.558,126.4 188.392,125.066 189,123.5C 189.333,124.833 189.667,126.167 190,127.5C 190.667,123.5 191.333,123.5 192,127.5C 192.977,126.226 193.811,126.226 194.5,127.5C 192.227,127.957 190.894,129.29 190.5,131.5C 189.517,134.461 189.517,137.128 190.5,139.5C 189.5,139.5 188.5,139.5 187.5,139.5C 187.281,140.675 187.614,141.675 188.5,142.5C 192.19,143.84 195.857,145.174 199.5,146.5C 200.031,148.624 201.365,150.124 203.5,151C 201.158,152.392 201.158,153.225 203.5,153.5C 202.167,156.833 200.833,160.167 199.5,163.5C 199.672,164.492 199.338,165.158 198.5,165.5C 197.094,165.973 196.427,166.973 196.5,168.5C 195.094,168.973 194.427,169.973 194.5,171.5C 192.738,172.262 191.738,173.596 191.5,175.5C 189.871,176.625 188.371,177.959 187,179.5C 186.667,179.167 186.333,178.833 186,178.5C 185.764,180.811 184.931,182.811 183.5,184.5C 181.833,185.5 180.5,186.833 179.5,188.5C 176.911,189.419 174.911,191.086 173.5,193.5C 171.973,193.427 170.973,194.094 170.5,195.5C 168.973,195.427 167.973,196.094 167.5,197.5C 165.973,197.427 164.973,198.094 164.5,199.5C 162.326,199.75 160.659,200.75 159.5,202.5C 158.486,203.674 157.153,204.34 155.5,204.5C 152.759,204.707 150.426,205.707 148.5,207.5C 138.142,211.089 127.475,213.089 116.5,213.5C 112.833,213.5 109.167,213.5 105.5,213.5C 98.0826,213.059 90.7493,212.059 83.5,210.5C 80.8539,208.747 77.8539,207.747 74.5,207.5C 72.5739,205.707 70.2406,204.707 67.5,204.5C 66.9524,203.312 66.6191,202.145 66.5,201C 65.451,200.508 64.451,200.674 63.5,201.5C 61.9246,200.544 60.258,199.877 58.5,199.5C 58.0269,198.094 57.0269,197.427 55.5,197.5C 55.0269,196.094 54.0269,195.427 52.5,195.5C 51.4206,193.457 49.754,192.124 47.5,191.5C 46.7377,189.738 45.4044,188.738 43.5,188.5C 40.3947,186.306 37.728,183.64 35.5,180.5C 34.9202,178.251 33.5869,176.585 31.5,175.5C 31.2624,173.596 30.2624,172.262 28.5,171.5C 28.573,169.973 27.9063,168.973 26.5,168.5C 26.573,166.973 25.9063,165.973 24.5,165.5C 23.6618,165.158 23.3284,164.492 23.5,163.5C 23.2503,161.326 22.2503,159.659 20.5,158.5C 20.2927,155.759 19.2927,153.426 17.5,151.5C 12.253,135.952 9.91966,119.952 10.5,103.5C 11.4345,102.432 11.7678,101.099 11.5,99.5 Z"/></g>
<g><path style="opacity:1" fill="#e16154" d="M 149.5,138.5 C 149.119,139.931 148.119,140.764 146.5,141C 143.304,141.805 140.304,141.638 137.5,140.5C 140.304,141.638 143.304,141.805 146.5,141C 148.119,140.764 149.119,139.931 149.5,138.5 Z"/></g>
<g><path style="opacity:1" fill="#ef9383" d="M 75.5,139.5 C 78.4824,139.963 81.4824,140.296 84.5,140.5C 83.5514,141.152 82.3847,141.486 81,141.5C 78.7794,141.607 76.9461,140.94 75.5,139.5 Z"/></g>
<g><path style="opacity:1" fill="#e0181f" d="M 28.5,126.5 C 29.3984,127.158 30.3984,127.824 31.5,128.5C 30.6667,128.833 29.8333,129.167 29,129.5C 26.4564,128.929 23.9564,128.262 21.5,127.5C 20.8333,127.5 20.1667,127.5 19.5,127.5C 18.4376,126.425 18.4376,125.425 19.5,124.5C 22.2123,126.26 25.2123,126.927 28.5,126.5 Z"/></g>
<g><path style="opacity:1" fill="#f8e4e4" d="M 22.5,123.5 C 23.675,123.281 24.675,123.614 25.5,124.5C 24.277,125.614 22.9437,125.781 21.5,125C 22.056,124.617 22.3893,124.117 22.5,123.5 Z"/></g>
<g><path style="opacity:1" fill="#d8292b" d="M 34.5,141.5 C 30.7607,145.891 26.4274,146.558 21.5,143.5C 21.1062,142.033 20.7728,140.533 20.5,139C 20.3875,137.338 21.0542,136.171 22.5,135.5C 23.2136,138.027 23.8803,140.527 24.5,143C 26.1667,143.667 27.8333,143.667 29.5,143C 32.1283,140.415 32.1283,137.915 29.5,135.5C 28.8333,136.5 28.1667,137.5 27.5,138.5C 24.2056,135.136 24.8722,133.136 29.5,132.5C 33.9171,133.855 35.5837,136.855 34.5,141.5 Z"/></g>
<g><path style="opacity:1" fill="#f9f2ea" d="M 120.5,116.5 C 121.531,117.355 122.697,118.022 124,118.5C 125.984,117.661 127.817,116.661 129.5,115.5C 126.771,123.478 128.771,124.478 135.5,118.5C 137.045,117.548 138.712,117.215 140.5,117.5C 140.33,118.822 140.663,119.989 141.5,121C 144.548,120.191 145.214,121.357 143.5,124.5C 141.516,123.017 139.683,121.351 138,119.5C 136.036,121.123 134.036,122.79 132,124.5C 131.833,125 131.667,125.5 131.5,126C 133.328,127.663 134.995,129.496 136.5,131.5C 142.122,133.36 144.789,131.36 144.5,125.5C 145.783,128.365 145.783,131.365 144.5,134.5C 141.614,134.71 138.614,134.877 135.5,135C 137.679,135.442 138.345,136.442 137.5,138C 139.218,138.346 140.885,138.846 142.5,139.5C 145.318,137.707 148.318,136.374 151.5,135.5C 150.833,136.5 150.167,137.5 149.5,138.5C 145.7,140.143 141.7,140.81 137.5,140.5C 133.224,138.068 129.057,135.401 125,132.5C 118.395,135.193 117.895,138.693 123.5,143C 127.87,145.847 132.203,148.68 136.5,151.5C 134.955,152.452 133.288,152.785 131.5,152.5C 131.849,156.064 131.183,159.398 129.5,162.5C 127.93,154.189 123.597,152.356 116.5,157C 114.833,158.833 113.167,160.667 111.5,162.5C 107.475,157.821 102.475,155.321 96.5,155C 92.8273,163.409 91.1607,162.576 91.5,152.5C 89.7809,151.978 88.4475,150.978 87.5,149.5C 89.7416,147.55 92.4083,146.383 95.5,146C 98.4071,143.465 101.074,140.798 103.5,138C 102.032,135.531 100.198,133.365 98,131.5C 94.8815,133.615 92.0482,136.115 89.5,139C 87.9751,140.009 86.3084,140.509 84.5,140.5C 81.4824,140.296 78.4824,139.963 75.5,139.5C 69.9364,135.661 67.7697,130.328 69,123.5C 70.4117,121.314 72.245,119.648 74.5,118.5C 74.1412,120.371 73.1412,121.871 71.5,123C 74.0627,124.079 76.7294,124.579 79.5,124.5C 78.8505,126.435 78.5172,128.435 78.5,130.5C 78.6602,132.199 78.4935,133.866 78,135.5C 76.0588,131.446 75.2254,131.78 75.5,136.5C 79.2625,138.304 83.2625,138.804 87.5,138C 90.3174,135.683 92.9841,133.183 95.5,130.5C 99.0685,128.678 101.402,129.678 102.5,133.5C 103.192,132.975 103.692,132.308 104,131.5C 105.177,133.176 106.677,134.509 108.5,135.5C 107.607,138.084 107.274,140.751 107.5,143.5C 110.421,143.854 112.754,142.854 114.5,140.5C 112.025,138.23 110.025,135.563 108.5,132.5C 106.651,131.407 104.984,130.074 103.5,128.5C 102.325,129.855 101.325,129.688 100.5,128C 103.035,127.072 104.035,125.238 103.5,122.5C 104.5,122.5 105.5,122.5 106.5,122.5C 105.433,126.334 106.933,129.001 111,130.5C 113.525,129.002 115.692,127.169 117.5,125C 116.456,123.826 115.456,122.659 114.5,121.5C 112.5,118.833 110.5,118.833 108.5,121.5C 108.5,122.167 108.167,122.5 107.5,122.5C 107.181,120.25 107.681,118.25 109,116.5C 109.725,117.059 110.558,117.392 111.5,117.5C 114.408,114.747 116.908,115.08 119,118.5C 120.03,118.164 120.53,117.497 120.5,116.5 Z"/></g>
<g><path style="opacity:1" fill="#e13029" d="M 114.5,121.5 C 115.456,122.659 116.456,123.826 117.5,125C 115.692,127.169 113.525,129.002 111,130.5C 106.933,129.001 105.433,126.334 106.5,122.5C 106.833,122.5 107.167,122.5 107.5,122.5C 108.167,122.5 108.5,122.167 108.5,121.5C 110.5,120.167 112.5,120.167 114.5,121.5 Z"/></g>
<g><path style="opacity:1" fill="#e52f2a" d="M 78.5,130.5 C 78.5172,128.435 78.8505,126.435 79.5,124.5C 81.4837,123.017 83.317,121.351 85,119.5C 87.5,121.333 89.6667,123.5 91.5,126C 89.6708,127.995 87.6708,129.828 85.5,131.5C 82.8619,132.833 80.5286,132.5 78.5,130.5 Z"/></g>
<g><path style="opacity:1" fill="#e0786f" d="M 114.5,121.5 C 112.5,120.167 110.5,120.167 108.5,121.5C 110.5,118.833 112.5,118.833 114.5,121.5 Z"/></g>
<g><path style="opacity:1" fill="#d63336" d="M 190.5,139.5 C 194.343,142.12 198.676,143.787 203.5,144.5C 203.719,145.675 203.386,146.675 202.5,147.5C 201.583,146.873 200.583,146.539 199.5,146.5C 195.857,145.174 192.19,143.84 188.5,142.5C 187.614,141.675 187.281,140.675 187.5,139.5C 188.5,139.5 189.5,139.5 190.5,139.5 Z"/></g>
<g><path style="opacity:1" fill="#e0382c" d="M 109.5,145.5 C 116.332,146.32 116.999,148.653 111.5,152.5C 107.148,151.119 106.482,148.786 109.5,145.5 Z"/></g>
<g><path style="opacity:1" fill="#f7a086" d="M 87.5,149.5 C 88.4475,150.978 89.7809,151.978 91.5,152.5C 89.8333,152.5 88.1667,152.5 86.5,152.5C 86.2627,151.209 86.596,150.209 87.5,149.5 Z"/></g>
<g><path style="opacity:1" fill="#585858" d="M 17.5,151.5 C 19.2927,153.426 20.2927,155.759 20.5,158.5C 18.7073,156.574 17.7073,154.241 17.5,151.5 Z"/></g>
<g><path style="opacity:1" fill="#575757" d="M 20.5,158.5 C 22.2503,159.659 23.2503,161.326 23.5,163.5C 21.7497,162.341 20.7497,160.674 20.5,158.5 Z"/></g>
<g><path style="opacity:1" fill="#636363" d="M 205.5,151.5 C 204.54,156.086 202.54,160.086 199.5,163.5C 200.833,160.167 202.167,156.833 203.5,153.5C 204.167,152.833 204.833,152.167 205.5,151.5 Z"/></g>
<g><path style="opacity:1" fill="#565656" d="M 24.5,165.5 C 25.9063,165.973 26.573,166.973 26.5,168.5C 25.0937,168.027 24.427,167.027 24.5,165.5 Z"/></g>
<g><path style="opacity:1" fill="#575757" d="M 198.5,165.5 C 198.573,167.027 197.906,168.027 196.5,168.5C 196.427,166.973 197.094,165.973 198.5,165.5 Z"/></g>
<g><path style="opacity:1" fill="#4c4c4c" d="M 26.5,168.5 C 27.9063,168.973 28.573,169.973 28.5,171.5C 27.0937,171.027 26.427,170.027 26.5,168.5 Z"/></g>
<g><path style="opacity:1" fill="#4c4c4c" d="M 196.5,168.5 C 196.573,170.027 195.906,171.027 194.5,171.5C 194.427,169.973 195.094,168.973 196.5,168.5 Z"/></g>
<g><path style="opacity:1" fill="#555555" d="M 28.5,171.5 C 30.2624,172.262 31.2624,173.596 31.5,175.5C 29.7376,174.738 28.7376,173.404 28.5,171.5 Z"/></g>
<g><path style="opacity:1" fill="#545454" d="M 194.5,171.5 C 194.262,173.404 193.262,174.738 191.5,175.5C 191.738,173.596 192.738,172.262 194.5,171.5 Z"/></g>
<g><path style="opacity:1" fill="#606060" d="M 31.5,175.5 C 33.5869,176.585 34.9202,178.251 35.5,180.5C 33.4131,179.415 32.0798,177.749 31.5,175.5 Z"/></g>
<g><path style="opacity:1" fill="#808080" d="M 191.5,175.5 C 189.913,178.268 188.08,180.935 186,183.5C 185.329,184.252 184.496,184.586 183.5,184.5C 184.931,182.811 185.764,180.811 186,178.5C 186.333,178.833 186.667,179.167 187,179.5C 188.371,177.959 189.871,176.625 191.5,175.5 Z"/></g>
<g><path style="opacity:1" fill="#818181" d="M 183.5,184.5 C 183.167,186.833 181.833,188.167 179.5,188.5C 180.5,186.833 181.833,185.5 183.5,184.5 Z"/></g>
<g><path style="opacity:1" fill="#cf3c47" d="M 95.5,187.5 C 103.495,187.935 111.495,188.269 119.5,188.5C 111.45,189.831 103.45,189.497 95.5,187.5 Z"/></g>
<g><path style="opacity:1" fill="#5a5a5a" d="M 43.5,188.5 C 45.4044,188.738 46.7377,189.738 47.5,191.5C 45.5956,191.262 44.2623,190.262 43.5,188.5 Z"/></g>
<g><path style="opacity:1" fill="#686868" d="M 179.5,188.5 C 178.089,190.914 176.089,192.581 173.5,193.5C 174.911,191.086 176.911,189.419 179.5,188.5 Z"/></g>
<g><path style="opacity:1" fill="#575757" d="M 47.5,191.5 C 49.754,192.124 51.4206,193.457 52.5,195.5C 50.2054,194.864 48.5387,193.531 47.5,191.5 Z"/></g>
<g><path style="opacity:1" fill="#4b4b4b" d="M 173.5,193.5 C 173.027,194.906 172.027,195.573 170.5,195.5C 170.973,194.094 171.973,193.427 173.5,193.5 Z"/></g>
<g><path style="opacity:1" fill="#555555" d="M 52.5,195.5 C 54.0269,195.427 55.0269,196.094 55.5,197.5C 53.9731,197.573 52.9731,196.906 52.5,195.5 Z"/></g>
<g><path style="opacity:1" fill="#4f4f4f" d="M 170.5,195.5 C 170.027,196.906 169.027,197.573 167.5,197.5C 167.973,196.094 168.973,195.427 170.5,195.5 Z"/></g>
<g><path style="opacity:1" fill="#555555" d="M 55.5,197.5 C 57.0269,197.427 58.0269,198.094 58.5,199.5C 56.9731,199.573 55.9731,198.906 55.5,197.5 Z"/></g>
<g><path style="opacity:1" fill="#d73136" d="M 96.5,192.5 C 97.6935,192.97 98.3601,193.97 98.5,195.5C 97.9028,198.958 96.9028,202.291 95.5,205.5C 94.2622,202.832 94.2622,200.166 95.5,197.5C 95.0623,196.494 94.3957,196.494 93.5,197.5C 92.6143,196.675 92.281,195.675 92.5,194.5C 94.3797,194.771 95.713,194.104 96.5,192.5 Z"/></g>
<g><path style="opacity:1" fill="#d93a39" d="M 103.5,193.5 C 107.391,193.892 109.391,196.059 109.5,200C 109.748,204.353 107.748,206.853 103.5,207.5C 100.718,207.141 100.052,205.808 101.5,203.5C 103.332,205.957 104.999,205.957 106.5,203.5C 99.9207,201.556 98.9207,198.223 103.5,193.5 Z"/></g>
<g><path style="opacity:1" fill="#f9eef2" d="M 103.5,196.5 C 104.5,196.5 105.5,196.5 106.5,196.5C 106.778,198.346 106.111,199.68 104.5,200.5C 103.571,199.311 103.238,197.978 103.5,196.5 Z"/></g>
<g><path style="opacity:1" fill="#4c4c4c" d="M 167.5,197.5 C 167.027,198.906 166.027,199.573 164.5,199.5C 164.973,198.094 165.973,197.427 167.5,197.5 Z"/></g>
<g><path style="opacity:1" fill="#9c9c9c" d="M 58.5,199.5 C 60.258,199.877 61.9246,200.544 63.5,201.5C 64.451,200.674 65.451,200.508 66.5,201C 66.6191,202.145 66.9524,203.312 67.5,204.5C 65.0721,203.788 62.7388,202.788 60.5,201.5C 58.7859,202.609 58.1192,201.942 58.5,199.5 Z"/></g>
<g><path style="opacity:1" fill="#555555" d="M 164.5,199.5 C 163.341,201.25 161.674,202.25 159.5,202.5C 160.659,200.75 162.326,199.75 164.5,199.5 Z"/></g>
<g><path style="opacity:1" fill="#525252" d="M 67.5,204.5 C 70.2406,204.707 72.5739,205.707 74.5,207.5C 71.7594,207.293 69.4261,206.293 67.5,204.5 Z"/></g>
<g><path style="opacity:1" fill="#d62d30" d="M 113.5,193.5 C 115.912,193.244 117.579,194.244 118.5,196.5C 117.467,197.452 116.3,197.452 115,196.5C 113.72,196.613 112.887,197.28 112.5,198.5C 113.391,199.59 114.391,199.59 115.5,198.5C 116.814,199.313 117.981,200.313 119,201.5C 119.287,199.109 119.787,196.776 120.5,194.5C 122.984,193.139 125.317,193.306 127.5,195C 125.866,195.494 124.199,195.66 122.5,195.5C 122.089,198.276 122.922,198.943 125,197.5C 128.465,199.22 129.298,201.887 127.5,205.5C 123.895,207.306 121.395,206.306 120,202.5C 119.224,206.95 116.724,208.45 112.5,207C 110.544,203.405 110.044,199.572 111,195.5C 111.995,194.934 112.828,194.267 113.5,193.5 Z"/></g>
<g><path style="opacity:1" fill="#f6d1d1" d="M 123.5,199.5 C 126.084,200.048 127.084,201.715 126.5,204.5C 122.716,204.475 121.716,202.808 123.5,199.5 Z"/></g>
<g><path style="opacity:1" fill="#f5e4de" d="M 114.5,200.5 C 116.256,201.552 116.923,203.219 116.5,205.5C 115.5,205.5 114.5,205.5 113.5,205.5C 113.366,203.708 113.699,202.042 114.5,200.5 Z"/></g>
<g><path style="opacity:1" fill="#5e5e5e" d="M 155.5,204.5 C 153.574,206.293 151.241,207.293 148.5,207.5C 150.426,205.707 152.759,204.707 155.5,204.5 Z"/></g>
<g><path style="opacity:1" fill="#a2a2a2" d="M 74.5,207.5 C 77.8539,207.747 80.8539,208.747 83.5,210.5C 83.5,210.833 83.5,211.167 83.5,211.5C 81.8561,211.286 80.3561,211.62 79,212.5C 77.975,210.313 76.475,208.646 74.5,207.5 Z"/></g>
<g><path style="opacity:1" fill="#5f5f5f" d="M 83.5,211.5 C 83.5,211.167 83.5,210.833 83.5,210.5C 90.7493,212.059 98.0826,213.059 105.5,213.5C 105.5,213.833 105.5,214.167 105.5,214.5C 98.0179,214.536 90.6845,213.536 83.5,211.5 Z"/></g>
<g><path style="opacity:1" fill="#636263" d="M 148.5,207.5 C 138.501,212.33 127.835,214.663 116.5,214.5C 116.5,214.167 116.5,213.833 116.5,213.5C 127.475,213.089 138.142,211.089 148.5,207.5 Z"/></g>
<g><path style="opacity:1" fill="#a6a5a5" d="M 105.5,214.5 C 105.5,214.167 105.5,213.833 105.5,213.5C 109.167,213.5 112.833,213.5 116.5,213.5C 116.5,213.833 116.5,214.167 116.5,214.5C 112.935,215.787 109.268,215.787 105.5,214.5 Z"/></g>
</svg>
