<?xml version="1.0" encoding="iso-8859-1"?>
<!-- Uploaded to: SVG Repo, www.svgrepo.com, Generator: SVG Repo Mixer Tools -->
<svg fill="#000000" version="1.1" id="Capa_1" xmlns="http://www.w3.org/2000/svg" xmlns:xlink="http://www.w3.org/1999/xlink" 
	 viewBox="0 0 489.843 489.843" xml:space="preserve">
<g>
	<g>
		<g>
			<path d="M41.469,199.7c0,0,239.8-89,240.9-89.4V94.4h-240.9V199.7z"/>
			<path d="M282.368,209.4v-78.1c0,0-239.8,89-240.9,89v47.8C41.469,268.1,281.569,209.4,282.368,209.4z"/>
			<polygon points="266.469,473.6 266.469,341.1 163.069,430.1 			"/>
			<path d="M286.269,324v64.5l128.2-103.4c-10.2-11.5-28.8-23.8-49-30.7C365.169,255.6,286.269,324,286.269,324z"/>
			<path d="M426.969,300.3l-140.7,113.5c0,0,0,67.6,0,68.4c60.2,22.5,127.8-6.2,153.1-66.1l0,0
				C455.669,376.5,449.868,333,426.969,300.3z"/>
			<rect x="41.469" width="240.9" height="75.4"/>
			<path d="M346.469,246.3l-38.9-16.3c-0.8,0.8-228.5,156.6-228.5,156.6c9.9,9.7,26.6,21.5,64.9,35.7
				C144.469,420.8,346.469,246.3,346.469,246.3z"/>
			<path d="M66.369,371.1l203.6-138.7c0,0-227.7,56-228.5,56c0,0-4.7,46.8,24.5,83.5C65.969,371.4,66.369,371.1,66.369,371.1z"/>
		</g>
	</g>
</g>
</svg>