<!DOCTYPE svg PUBLIC "-//W3C//DTD SVG 1.1//EN" "http://www.w3.org/Graphics/SVG/1.1/DTD/svg11.dtd">
<!-- Uploaded to: SVG Repo, www.svgrepo.com, Transformed by: SVG Repo Mixer Tools -->
<svg fill="#3276C3" height="800px" width="800px" version="1.1" id="Layer_1" xmlns="http://www.w3.org/2000/svg" xmlns:xlink="http://www.w3.org/1999/xlink" viewBox="0 0 512.272 512.272" xml:space="preserve" transform="matrix(1, 0, 0, 1, 0, 0)" stroke="#3276C3">
<g id="SVGRepo_bgCarrier" stroke-width="0"/>
<g id="SVGRepo_tracerCarrier" stroke-linecap="round" stroke-linejoin="round"/>
<g id="SVGRepo_iconCarrier"> <g> <g> <g> <path d="M440.805,386.482l-60.907-47.467c-17.173-13.44-41.173-13.333-58.24,0.213l-13.547,10.667 c-10.24,8.107-24.96,7.253-34.24-2.027l-108.907-109.12c-9.28-9.28-10.133-24.107-2.027-34.453l10.667-13.547 c13.547-17.067,13.547-41.173,0.213-58.24l-47.36-61.013c-8.32-10.667-20.8-17.28-34.347-18.133 c-13.44-0.747-26.667,4.267-36.267,13.76l-38.827,38.933c-21.653,21.653-52.907,90.987,122.773,266.987 c114.453,114.773,184.32,138.88,222.72,138.88c23.147,0,36.587-8.533,43.733-15.787l38.933-38.933 c18.453-18.453,18.347-48.427-0.107-66.88C443.685,388.936,442.298,387.656,440.805,386.482z M432.165,440.242 c-0.747,0.853-1.387,1.6-2.133,2.347l-38.933,38.933c-4.267,4.373-12.8,9.493-28.693,9.493 c-28.16,0-92.587-17.173-207.68-132.587c-132.48-132.8-148.907-210.56-122.667-236.8l38.933-39.04 c4.8-4.8,11.307-7.573,18.24-7.573c0.533,0,1.067,0,1.6,0c7.36,0.427,14.187,4.053,18.773,9.92l47.36,61.013 c7.36,9.387,7.253,22.613-0.107,32l-10.667,13.547c-14.827,18.773-13.227,45.653,3.627,62.72l108.907,109.227 c16.96,16.96,43.84,18.56,62.613,3.627l13.547-10.667c9.28-7.467,22.507-7.467,31.893-0.107l60.907,47.467 C438.992,412.616,441.018,428.936,432.165,440.242z"/> <path d="M384.272,0.349c-70.72,0-128,57.28-128,128s57.28,128,128,128s128-57.28,128-128 C512.272,57.736,454.992,0.456,384.272,0.349z M384.272,235.016c-58.88,0-106.667-47.787-106.667-106.667 S325.392,21.682,384.272,21.682s106.667,47.787,106.667,106.667S443.258,234.909,384.272,235.016z"/> <path d="M447.845,117.682h-53.013V64.669c0-5.333-3.84-10.133-9.067-10.88c-6.613-0.96-12.267,4.16-12.267,10.56v53.333h-53.013 c-5.333,0-10.133,3.84-10.88,9.067c-0.96,6.613,4.16,12.267,10.56,12.267h53.333v53.013c0,5.333,3.84,10.133,9.067,10.88 c6.613,0.96,12.267-4.16,12.267-10.56v-53.333h53.333c6.4,0,11.52-5.653,10.56-12.267 C457.978,121.522,453.178,117.682,447.845,117.682z"/> </g> </g> </g> </g>
</svg>